<svg width="16" height="14" viewBox="0 0 16 14" fill="none" xmlns="http://www.w3.org/2000/svg">
<path fill-rule="evenodd" clip-rule="evenodd" d="M10.3005 1.22816C11.0649 1.53238 11.2987 2.59184 11.6112 2.93238C11.9238 3.27292 12.371 3.3887 12.6185 3.3887C13.9337 3.3887 15 4.45497 15 5.76946V10.1549C15 11.9181 13.5697 13.3484 11.8065 13.3484H4.19351C2.42951 13.3484 1 11.9181 1 10.1549V5.76946C1 4.45497 2.06627 3.3887 3.38151 3.3887C3.62822 3.3887 4.07546 3.27292 4.38876 2.93238C4.7013 2.59184 4.93438 1.53238 5.6987 1.22816C6.46378 0.923946 9.53622 0.923946 10.3005 1.22816Z" stroke="#F4F500" stroke-linecap="round" stroke-linejoin="round"/>
</svg>
